<svg xmlns="http://www.w3.org/2000/svg" xmlns:xlink="http://www.w3.org/1999/xlink" width="500" zoomAndPan="magnify" viewBox="0 0 375 374.999991" height="500" preserveAspectRatio="xMidYMid meet" version="1.0"><defs><clipPath id="b554362bf8"><path d="M 129.425781 129.425781 L 245.675781 129.425781 L 245.675781 245.675781 L 129.425781 245.675781 Z M 129.425781 129.425781 " clip-rule="nonzero"/></clipPath></defs><g clip-path="url(#b554362bf8)"><path fill="#5271ff" d="M 187.496094 135.539062 C 216.191406 135.539062 239.457031 158.800781 239.457031 187.496094 C 239.457031 195.726562 237.542969 203.503906 234.144531 210.410156 C 233.550781 211.617188 233.339844 213.019531 233.621094 214.398438 L 238.605469 238.671875 L 213.515625 233.976562 C 212.203125 233.730469 210.875 233.929688 209.71875 234.476562 C 202.984375 237.667969 195.453125 239.457031 187.496094 239.457031 C 158.800781 239.457031 135.539062 216.191406 135.539062 187.496094 C 135.539062 158.800781 158.800781 135.539062 187.496094 135.539062 Z M 245.570312 187.496094 C 245.570312 155.425781 219.570312 129.425781 187.496094 129.425781 C 155.425781 129.425781 129.425781 155.425781 129.425781 187.496094 C 129.425781 219.570312 155.425781 245.570312 187.496094 245.570312 C 196.378906 245.570312 204.800781 243.574219 212.335938 240.003906 C 212.371094 239.988281 212.390625 239.988281 212.394531 239.988281 L 237.480469 244.679688 C 241.75 245.480469 245.464844 241.695312 244.59375 237.441406 L 239.613281 213.171875 C 239.613281 213.167969 239.609375 213.148438 239.628906 213.109375 C 243.433594 205.382812 245.570312 196.683594 245.570312 187.496094 Z M 245.570312 187.496094 " fill-opacity="1" fill-rule="evenodd"/></g><path fill="#5271ff" d="M 156.933594 184.441406 C 155.246094 184.441406 153.875 185.808594 153.875 187.496094 C 153.875 189.183594 155.246094 190.554688 156.933594 190.554688 C 158.621094 190.554688 159.988281 189.183594 159.988281 187.496094 C 159.988281 185.808594 158.621094 184.441406 156.933594 184.441406 Z M 147.761719 187.496094 C 147.761719 182.433594 151.867188 178.328125 156.933594 178.328125 C 161.996094 178.328125 166.101562 182.433594 166.101562 187.496094 C 166.101562 192.5625 161.996094 196.664062 156.933594 196.664062 C 151.867188 196.664062 147.761719 192.5625 147.761719 187.496094 Z M 147.761719 187.496094 " fill-opacity="1" fill-rule="evenodd"/><path fill="#5271ff" d="M 187.496094 184.441406 C 185.808594 184.441406 184.441406 185.808594 184.441406 187.496094 C 184.441406 189.183594 185.808594 190.554688 187.496094 190.554688 C 189.183594 190.554688 190.554688 189.183594 190.554688 187.496094 C 190.554688 185.808594 189.183594 184.441406 187.496094 184.441406 Z M 178.328125 187.496094 C 178.328125 182.433594 182.433594 178.328125 187.496094 178.328125 C 192.5625 178.328125 196.664062 182.433594 196.664062 187.496094 C 196.664062 192.5625 192.5625 196.664062 187.496094 196.664062 C 182.433594 196.664062 178.328125 192.5625 178.328125 187.496094 Z M 178.328125 187.496094 " fill-opacity="1" fill-rule="evenodd"/><path fill="#5271ff" d="M 218.0625 184.441406 C 216.375 184.441406 215.003906 185.808594 215.003906 187.496094 C 215.003906 189.183594 216.375 190.554688 218.0625 190.554688 C 219.75 190.554688 221.117188 189.183594 221.117188 187.496094 C 221.117188 185.808594 219.75 184.441406 218.0625 184.441406 Z M 208.890625 187.496094 C 208.890625 182.433594 212.996094 178.328125 218.0625 178.328125 C 223.125 178.328125 227.230469 182.433594 227.230469 187.496094 C 227.230469 192.5625 223.125 196.664062 218.0625 196.664062 C 212.996094 196.664062 208.890625 192.5625 208.890625 187.496094 Z M 208.890625 187.496094 " fill-opacity="1" fill-rule="evenodd"/></svg>